<?xml version="1.0" standalone="no"?>
<!DOCTYPE svg PUBLIC "-//W3C//DTD SVG 20010904//EN"
 "http://www.w3.org/TR/2001/REC-SVG-20010904/DTD/svg10.dtd">
<svg version="1.0" xmlns="http://www.w3.org/2000/svg"
 width="200.000000pt" height="200.000000pt" viewBox="0 0 200.000000 200.000000"
 preserveAspectRatio="xMidYMid meet">
<metadata>
Created by potrace 1.11, written by Peter Selinger 2001-2013
</metadata>
<g transform="translate(0.000000,200.000000) scale(0.100000,-0.100000)"
fill="#000000" stroke="none">
<path d="M640 1947 c-92 -46 -106 -258 -28 -426 65 -140 88 -193 88 -201 0 -4
-44 -10 -98 -12 -88 -3 -105 -6 -165 -37 -74 -37 -152 -113 -186 -179 -58
-115 -80 -369 -45 -525 41 -179 148 -316 324 -414 177 -98 303 -127 520 -120
169 5 222 18 365 86 115 56 218 144 283 240 50 76 125 249 143 331 23 105 18
346 -9 445 -50 186 -154 323 -297 390 -172 82 -394 72 -571 -26 -69 -38 -99
-69 -137 -144 l-16 -30 -24 55 c-37 84 -60 185 -52 233 10 57 27 88 85 153 57
62 62 89 23 127 -59 56 -151 80 -203 54z m790 -618 c212 -94 309 -503 181
-764 -63 -128 -217 -258 -362 -306 -66 -21 -91 -24 -229 -24 -174 0 -224 11
-345 73 -186 95 -307 307 -277 482 42 237 235 359 470 296 78 -21 89 -15 132
65 43 82 93 135 153 165 93 48 188 52 277 13z"/>
<path d="M1299 997 c-29 -19 -35 -30 -37 -66 -3 -38 1 -46 32 -76 79 -74 216
-50 216 39 0 57 -88 126 -161 126 -9 0 -31 -10 -50 -23z"/>
<path d="M728 818 c-48 -45 -70 -92 -72 -156 -1 -45 3 -57 23 -73 36 -29 71
-24 114 17 118 115 55 321 -65 212z"/>
<path d="M1126 814 c-3 -9 -6 -43 -6 -76 0 -60 0 -61 -20 -43 -11 10 -20 23
-20 30 0 17 -40 56 -51 50 -17 -11 -9 -34 38 -111 51 -81 65 -93 88 -74 12 10
15 38 15 126 0 105 -1 114 -19 114 -10 0 -22 -7 -25 -16z"/>
</g>
</svg>
